<svg width="496" height="589" viewBox="0 0 496 589" fill="none" xmlns="http://www.w3.org/2000/svg">
<path d="M203.872 514.457L284.046 429.978L356.143 405.222L266.759 501.91L203.872 514.457ZM203.872 514.457L183.698 476.488M183.698 476.488L234.187 329.334L219.981 310.452L141.637 364.598L135.508 385.677M183.698 476.488L128.745 498.731M135.508 385.677L128.745 498.731M135.508 385.677L90.1035 325.207L91.01 461.746L128.745 498.731M92.162 164.139L109.376 315.662L148.246 343.002L218.538 285.483L220.806 221.68L174.392 189.306L120.403 172.782L92.162 164.139ZM444.311 271.885L342.659 393.419L303.754 342.45L293.784 294.886L310.275 261.78L388.894 263.132L444.311 271.885Z" stroke="white" stroke-opacity="0.6"/>
<path fill-rule="evenodd" clip-rule="evenodd" d="M273.916 40.8086C273.572 40.7033 273.208 40.8969 273.103 41.2409L244.585 134.42C240.89 146.49 226.67 151.669 216.079 144.801L143.621 97.8133C143.34 97.6316 142.968 97.6913 142.759 97.9516L90.9385 162.36C90.7095 162.645 90.7592 163.062 91.0488 163.285L175.283 228.091C185.183 235.708 185.166 250.641 175.25 258.235L90.1484 323.406C89.8674 323.621 89.8096 324.021 90.0182 324.307L135.237 386.289C135.442 386.569 135.83 386.64 136.12 386.45L217.284 333.384C227.215 326.891 240.603 330.988 245.199 341.927L282.759 431.33C282.893 431.65 283.254 431.808 283.581 431.691L355.744 405.635C356.077 405.515 356.253 405.151 356.141 404.815L322.093 303.178C318.125 291.334 326.469 278.95 338.936 278.179L445.013 271.618C445.378 271.596 445.652 271.278 445.622 270.914L438.727 188.535C438.699 188.202 438.424 187.944 438.09 187.938L351.746 186.323C339.125 186.087 330.239 173.836 333.933 161.766L362.451 68.5866C362.556 68.2426 362.363 67.8783 362.019 67.773L318.175 54.3544C318.038 54.3125 317.897 54.2692 317.76 54.2273L273.916 40.8086Z" fill="white"/>
<rect x="30.405" y="413" width="313" height="41" transform="rotate(19.0839 30.405 413)" fill="white"/>
<path d="M290.768 587.788L312.768 553.788L298.768 520.788L46.7681 432.788L17.7681 451.788L26.7681 493.788L290.768 587.788Z" stroke="white" stroke-opacity="0.6"/>
<path d="M36.2681 471.788L34.2681 422.788L314.268 525.788L284.268 563.288M36.2681 471.788L27.7681 493.788M36.2681 471.788L284.268 563.288M290.268 587.788L284.268 563.288" stroke="white" stroke-opacity="0.6"/>
</svg>
